<?xml version="1.0" encoding="UTF-8" standalone="no"?><!DOCTYPE svg PUBLIC "-//W3C//DTD SVG 1.1//EN" "http://www.w3.org/Graphics/SVG/1.1/DTD/svg11.dtd"><svg width="100%" height="100%" viewBox="0 0 1879 320" version="1.1" xmlns="http://www.w3.org/2000/svg" xmlns:xlink="http://www.w3.org/1999/xlink" xml:space="preserve" xmlns:serif="http://www.serif.com/" style="fill-rule:evenodd;clip-rule:evenodd;stroke-linejoin:round;stroke-miterlimit:2;"><clipPath id="_clip1"><rect id="Creative_Cloud" x="0" y="4.682" width="426.415" height="314.524"/></clipPath><g clip-path="url(#_clip1)"><clipPath id="_clip2"><rect x="0" y="4.7" width="426.415" height="314.494"/></clipPath><g clip-path="url(#_clip2)"><path d="M426.415,154.928l0,14.039c-0.133,0.761 -0.302,1.509 -0.389,2.267c-0.727,6.107 -1.197,12.252 -2.201,18.313c-3.278,19.699 -10.364,38.009 -20.893,54.939c-15.989,25.704 -37.605,45.305 -64.769,58.691c-15.678,7.762 -32.582,12.751 -49.963,14.744c-3.86,0.445 -7.717,0.846 -11.578,1.27l-149.803,0c-0.755,-0.14 -1.506,-0.365 -2.267,-0.41c-15.105,-0.952 -29.639,-4.394 -43.491,-10.455c-30.158,-13.197 -52.644,-34.584 -67.363,-64.022c-6.504,-12.985 -10.713,-26.998 -12.442,-41.417c-0.424,-3.506 -0.838,-7.009 -1.256,-10.511l0,-13.621c0.144,-0.755 0.365,-1.509 0.411,-2.267c0.782,-13.087 3.467,-25.796 8.195,-38.009c12.722,-32.864 34.899,-57.238 66.415,-73.014c16.351,-8.187 33.78,-12.49 52.009,-13.445c8.924,-0.463 17.842,0.035 26.715,1.225c0.803,0.109 1.961,-0.249 2.519,-0.821c12.758,-13.031 27.284,-23.616 43.663,-31.639c15.888,-7.781 32.608,-12.796 50.208,-14.804c4.142,-0.473 8.294,-0.863 12.442,-1.291l12.771,0c0.836,0.13 1.674,0.277 2.51,0.375c6.327,0.737 12.69,1.201 18.958,2.25c19.556,3.282 37.76,10.301 54.606,20.728c25.831,15.989 45.516,37.633 58.965,64.881c7.778,15.686 12.771,32.604 14.758,49.998c0.456,4.005 0.845,8.009 1.27,12.006m-238.424,-90.838c0.256,0.337 0.32,0.495 0.428,0.547c8.771,4.323 17.153,9.392 25.055,15.151c0.499,0.362 1.734,0.211 2.338,-0.168c21.717,-13.761 45.259,-18.51 70.549,-14.025c24.782,4.394 44.948,16.776 60.355,36.553c17.446,22.38 24.097,47.688 19.282,75.845c-3.229,18.871 -10.789,35.802 -23.638,49.984c-23.444,25.855 -52.801,36.549 -87.36,32.021c-21.275,-2.786 -39.641,-11.964 -54.841,-27.325c-19.51,-19.707 -39.146,-39.283 -58.712,-58.937c-2.608,-2.618 -5.51,-4.724 -9.265,-5.183c-6.56,-0.804 -12.512,2.47 -15.344,8.363c-2.527,5.261 -2.201,11.192 3.281,16.583c21.812,21.412 43.431,43.02 65.219,64.453c3.729,3.687 7.728,7.091 11.964,10.182c15.916,11.557 33.861,17.948 53.293,20.52c15.253,2.015 30.386,1.583 45.404,-1.793c28.645,-6.433 52.373,-21.054 71.062,-43.614c15.432,-18.643 24.764,-40.065 28.017,-64.116c1.885,-13.715 1.492,-27.648 -1.165,-41.235c-4.335,-22.215 -13.733,-42.094 -28.793,-59.013c-28.733,-32.264 -64.882,-46.667 -107.899,-43.453c-16.547,1.236 -32.2,6.097 -46.93,13.807c-7.949,4.13 -15.426,9.11 -22.3,14.853m-10.525,225.231c-0.592,-0.548 -1.182,-1.099 -1.769,-1.653c-8.918,-8.419 -17.885,-16.786 -26.697,-25.315c-1.706,-1.649 -3.275,-2.453 -5.689,-2.397c-8.925,0.218 -17.857,0.257 -26.652,-1.73c-43.73,-9.89 -69.122,-57.434 -53.006,-99.269c12.712,-32.986 47.903,-53.075 82.606,-46.881c15.554,2.776 29.206,9.36 40.413,20.917c13.666,14.109 27.739,27.814 41.553,41.779c3.145,3.179 6.756,4.629 11.111,4.008c5.63,-0.804 10.112,-3.485 12.147,-9.006c1.994,-5.433 1.028,-10.578 -3.085,-14.744c-14.498,-14.687 -28.652,-29.744 -43.736,-43.807c-29.256,-27.287 -63.755,-35.401 -101.912,-23.798c-51.32,15.593 -81.356,68.588 -69.63,120.881c10.687,47.646 52.356,81.085 101.115,81.127c13.613,0.014 27.231,0.007 40.844,0c0.674,0 1.348,-0.059 2.387,-0.112" style="fill:#fff;fill-rule:nonzero;"/></g></g><g><path d="M539.299,97.178l11.422,35.772l24.717,0l-41.008,-126.208l-29.397,0l-40.446,126.208l23.781,0l10.86,-35.772l40.071,0Zm-36.326,-17.394l9.737,-31.089c2.247,-7.508 4.119,-16.315 5.992,-23.622l0.374,0c1.873,7.307 3.932,15.926 6.366,23.608l9.925,31.103l-32.394,0Z" style="fill:#fff;fill-rule:nonzero;"/><path d="M650.75,0l0,51.675l-0.375,0c-4.122,-6.733 -13.117,-11.97 -25.672,-11.97c-21.917,0 -41.001,18.143 -40.814,48.683c0,28.104 17.213,46.622 38.94,46.622c13.305,0 24.361,-6.359 29.792,-16.46l0.374,0l0.936,14.4l20.581,0c-0.374,-6.18 -0.749,-16.294 -0.749,-25.658l0,-107.292l-23.013,0Zm0,93.433c0,2.45 -0.187,4.698 -0.75,6.759c-2.248,9.93 -10.493,16.3 -19.863,16.3c-14.616,0 -22.861,-12.178 -22.861,-28.853c0,-17.05 8.245,-30.165 23.049,-30.165c10.494,0 17.802,7.307 19.863,16.3c0.375,1.874 0.562,4.122 0.562,5.996l0,13.663Z" style="fill:#fff;fill-rule:nonzero;"/><path d="M739.887,39.705c-27.539,0 -47.185,18.331 -47.185,48.308c0,29.228 19.833,46.997 45.686,46.997c23.236,0 46.811,-14.962 46.811,-48.496c0,-27.729 -18.149,-46.809 -45.312,-46.809Zm-0.562,16.832c15.74,0 22.112,16.3 22.112,30.539c0,18.361 -9.182,31.289 -22.299,31.289c-14.054,0 -22.674,-13.302 -22.674,-30.914c0,-15.176 6.559,-30.914 22.861,-30.914Z" style="fill:#fff;fill-rule:nonzero;"/><path d="M823.035,132.95l1.122,-13.652l0.374,0c6.555,11.223 17.049,15.712 28.854,15.712c20.608,0 41.376,-16.273 41.376,-49.058c0.188,-27.729 -15.716,-46.247 -38.003,-46.247c-13.679,0 -23.611,5.798 -29.232,14.589l-0.375,0l0,-54.294l-23.013,0l0,107.311c0,9.345 -0.375,19.459 -0.749,25.639l19.646,0Zm4.116,-52.44c0,-2.248 0.375,-4.308 0.749,-5.993c2.624,-10.114 11.056,-16.856 20.426,-16.856c15.365,0 23.048,13.11 23.048,29.217c0,18.372 -8.807,29.989 -23.236,29.989c-9.931,0 -17.989,-6.932 -20.425,-16.113c-0.375,-1.686 -0.562,-3.56 -0.562,-5.434l0,-14.81Z" style="fill:#fff;fill-rule:nonzero;"/><path d="M991.027,93.807c0.374,-2.057 0.749,-5.423 0.749,-9.725c0,-20.044 -9.729,-44.377 -39.317,-44.377c-29.223,0 -44.564,23.77 -44.564,49.053c0,27.921 17.399,46.065 47,46.065c13.117,0 23.972,-2.431 31.829,-5.611l-3.367,-15.908c-6.922,2.625 -14.595,4.125 -25.277,4.125c-14.616,0 -27.547,-7.124 -28.109,-23.622l61.056,0Zm-61.056,-16.083c0.937,-9.374 6.934,-22.311 21.176,-22.311c15.366,0 19.114,13.874 18.927,22.311l-40.103,0Z" style="fill:#fff;fill-rule:nonzero;"/></g><g><path d="M577.55,290.191c-7.261,3.404 -19.059,5.674 -30.403,5.674c-33.58,0 -53.319,-21.56 -53.319,-55.149c0,-36.765 22.462,-56.282 53.545,-56.282c12.706,0 22.689,2.723 29.95,5.9l6.126,-22.216c-5.672,-2.946 -18.832,-6.798 -37.21,-6.798c-46.739,0 -81.652,30.376 -81.652,80.758c0,46.524 29.467,76.901 78.022,76.901c18.378,0 32.899,-3.399 39.478,-6.798l-4.537,-21.99Z" style="fill:#fff;fill-rule:nonzero;"/><path d="M604.124,316.71l27.879,0l0,-57.161c0,-3.191 0.454,-6.141 0.908,-8.637c2.495,-12.479 11.571,-21.1 24.957,-21.1c3.404,0 5.899,0.453 8.168,0.907l0,-26.291c-2.269,-0.454 -3.857,-0.68 -6.579,-0.68c-11.799,0 -24.731,7.932 -30.174,23.571l-0.907,0l-0.906,-21.075l-24.254,0c0.681,9.98 0.908,20.641 0.908,35.612l0,74.854Z" style="fill:#fff;fill-rule:nonzero;"/><path d="M776.532,269.29c0.453,-2.492 0.907,-6.57 0.907,-11.781c0,-24.283 -11.786,-53.761 -47.631,-53.761c-35.402,0 -53.987,28.797 -53.987,59.425c0,33.825 21.078,55.806 56.938,55.806c15.892,0 29.041,-2.946 38.56,-6.797l-4.079,-19.272c-8.386,3.18 -17.681,4.997 -30.621,4.997c-17.708,0 -33.372,-8.631 -34.053,-28.617l73.966,0Zm-73.966,-19.484c1.135,-11.356 8.399,-27.028 25.653,-27.028c18.616,0 23.156,16.808 22.929,27.028l-48.582,0Z" style="fill:#fff;fill-rule:nonzero;"/><path d="M887.253,316.71c-1.134,-6.807 -1.588,-16.563 -1.588,-26.546l0,-39.913c0,-24.066 -10.2,-46.503 -45.59,-46.503c-17.483,0 -31.767,4.758 -39.927,9.742l5.44,18.148c7.48,-4.771 18.82,-8.179 29.719,-8.179c19.527,0 22.479,12.041 22.479,19.311l0,1.818c-40.865,-0.227 -65.571,13.818 -65.571,41.719c0,16.813 12.466,32.899 34.691,32.899c14.305,0 25.885,-6.117 32.693,-14.727l0.68,0l1.813,12.231l25.161,0Zm-28.787,-38.786c0,1.816 -0.227,4.087 -0.907,6.131c-2.498,7.947 -10.672,15.213 -21.798,15.213c-8.855,0 -15.894,-4.995 -15.894,-15.895c0,-16.802 18.846,-21.115 38.599,-20.662l0,15.213Z" style="fill:#fff;fill-rule:nonzero;"/><path d="M918.592,181.286l0,24.958l-15.882,0l0,20.845l15.882,0l0,51.979c0,14.527 2.72,24.502 8.613,30.847c5.213,5.665 13.826,9.064 24.031,9.064c8.849,0 16.109,-1.133 20.193,-2.719l-0.454,-21.303c-2.496,0.681 -6.126,1.362 -10.89,1.362c-10.664,0 -14.294,-7.037 -14.294,-20.429l0,-48.801l26.546,0l0,-20.845l-26.546,0l0,-31.538l-27.199,6.58Z" style="fill:#fff;fill-rule:nonzero;"/><path d="M1021.57,316.71l0,-110.466l-28.106,0l0,110.466l28.106,0Zm-14.053,-156.525c-9.294,0 -15.642,6.574 -15.642,15.187c0,8.387 6.121,14.961 15.415,14.961c9.747,0 15.868,-6.574 15.868,-14.961c-0.227,-8.613 -6.121,-15.187 -15.641,-15.187Z" style="fill:#fff;fill-rule:nonzero;"/><path d="M1039.07,206.244l41.057,110.466l27.446,0l42.191,-110.466l-29.488,0l-17.466,56.027c-2.949,9.997 -5.444,18.619 -7.486,27.695l-0.68,0c-2.042,-9.076 -4.31,-17.925 -7.486,-27.681l-17.919,-56.041l-30.169,0Z" style="fill:#fff;fill-rule:nonzero;"/><path d="M1257.54,269.29c0.453,-2.492 0.907,-6.57 0.907,-11.781c0,-24.283 -11.786,-53.761 -47.631,-53.761c-35.402,0 -53.987,28.797 -53.987,59.425c0,33.825 21.078,55.806 56.938,55.806c15.891,0 29.041,-2.946 38.56,-6.797l-4.079,-19.272c-8.386,3.18 -17.681,4.997 -30.622,4.997c-17.707,0 -33.372,-8.631 -34.053,-28.617l73.967,0Zm-73.967,-19.484c1.135,-11.356 8.4,-27.028 25.654,-27.028c18.615,0 23.156,16.808 22.929,27.028l-48.583,0Z" style="fill:#fff;fill-rule:nonzero;"/><path d="M1434.06,290.191c-7.261,3.404 -19.059,5.674 -30.403,5.674c-33.58,0 -53.319,-21.56 -53.319,-55.149c0,-36.765 22.462,-56.282 53.546,-56.282c12.705,0 22.688,2.723 29.949,5.9l6.126,-22.216c-5.672,-2.946 -18.832,-6.798 -37.21,-6.798c-46.739,0 -81.652,30.376 -81.652,80.758c0,46.524 29.468,76.901 78.022,76.901c18.378,0 32.899,-3.399 39.479,-6.798l-4.538,-21.99Z" style="fill:#fff;fill-rule:nonzero;"/><rect x="1460.63" y="155.647" width="28.106" height="161.063" style="fill:#fff;fill-rule:nonzero;"/><path d="M1569.07,203.748c-33.363,0 -57.163,22.207 -57.163,58.523c0,35.408 24.026,56.935 55.346,56.935c28.149,0 56.709,-18.126 56.709,-58.751c0,-33.592 -21.987,-56.707 -54.892,-56.707Zm-0.682,20.391c19.069,0 26.787,19.747 26.787,36.997c0,22.244 -11.123,37.905 -27.014,37.905c-17.025,0 -27.467,-16.115 -27.467,-37.451c0,-18.385 7.945,-37.451 27.694,-37.451Z" style="fill:#fff;fill-rule:nonzero;"/><path d="M1745.8,206.244l-27.879,0l0,66.705c0,3.176 -0.681,6.126 -1.589,8.622c-2.951,7.033 -10.216,14.974 -21.341,14.974c-14.758,0 -20.661,-11.798 -20.661,-30.176l0,-60.125l-27.879,0l0,64.89c0,36.062 18.36,48.072 38.55,48.072c19.752,0 30.65,-11.33 35.414,-19.261l0.453,0l1.36,16.765l24.48,0c-0.454,-9.073 -0.908,-19.961 -0.908,-33.117l0,-77.349Z" style="fill:#fff;fill-rule:nonzero;"/><path d="M1849.97,155.647l0,62.603l-0.454,0c-4.995,-8.158 -15.891,-14.502 -31.101,-14.502c-26.552,0 -49.671,21.98 -49.445,58.977c0,34.047 20.853,56.481 47.175,56.481c16.118,0 29.511,-7.705 36.091,-19.941l0.454,0l1.133,17.445l24.933,0c-0.453,-7.487 -0.907,-19.739 -0.907,-31.084l0,-129.979l-27.879,0Zm0,113.19c0,2.968 -0.227,5.691 -0.909,8.188c-2.724,12.03 -12.712,19.747 -24.063,19.747c-17.706,0 -27.695,-14.753 -27.695,-34.954c0,-20.656 9.989,-36.544 27.922,-36.544c12.713,0 21.566,8.852 24.064,19.747c0.454,2.27 0.681,4.994 0.681,7.263l0,16.553Z" style="fill:#fff;fill-rule:nonzero;"/></g></svg>