<?xml version="1.0" encoding="UTF-8" standalone="no"?><!DOCTYPE svg PUBLIC "-//W3C//DTD SVG 1.1//EN" "http://www.w3.org/Graphics/SVG/1.1/DTD/svg11.dtd"><svg width="100%" height="100%" viewBox="0 0 184 33" version="1.1" xmlns="http://www.w3.org/2000/svg" xmlns:xlink="http://www.w3.org/1999/xlink" xml:space="preserve" xmlns:serif="http://www.serif.com/" style="fill-rule:evenodd;clip-rule:evenodd;stroke-linejoin:round;stroke-miterlimit:2;"><g><path d="M50.923,2.78l-14.17,0l0,11.777l8.108,0l0,2.748l-8.108,0l0,14.772l-2.952,0l0,-32.077l17.122,0l0,2.78Zm73.846,29.297l-2.986,0l0,-32.077l2.986,0l0,32.077Zm-41.64,0l-2.989,0l0,-32.077l2.989,0l0,32.077Zm-9.037,-29.297l-14.168,0l0,11.777l8.106,0l0,2.748l-8.106,0l0,14.772l-2.954,0l0,-32.077l17.122,0l0,2.78Zm76.778,0l-8.518,0l0,29.297l-2.989,0l0,-29.297l-8.565,0l0,-2.78l20.072,0l0,2.78Zm-58.733,29.297l-2.952,0l0,-32.077l3.177,0l20.363,27.049l0,-27.049l2.988,0l0,32.077l-2.912,0l-20.664,-27.526l0,27.526Zm77.958,0l-3.022,0l0,-7.844l-13.835,-24.233l3.407,0l11.939,20.793l11.938,-20.793l3.408,0l-13.835,24.233l0,7.844Zm-138.935,0l-3.181,0l-12.423,-27.995c-0.777,1.79 -8.34,18.986 -9.145,20.808c1.583,0 15.138,0.135 15.915,0.139l1.235,2.698c-2.701,-0.017 -14.819,-0.056 -18.407,-0.056c-0.327,0.69 -1.704,3.748 -1.972,4.406l-3.182,0l14.213,-32.077l2.734,0l14.213,32.077Z" style="fill:#fff;"/></g></svg>