<?xml version="1.0" encoding="UTF-8" standalone="no"?><!DOCTYPE svg PUBLIC "-//W3C//DTD SVG 1.1//EN" "http://www.w3.org/Graphics/SVG/1.1/DTD/svg11.dtd"><svg width="100%" height="100%" viewBox="0 0 89 32" version="1.1" xmlns="http://www.w3.org/2000/svg" xmlns:xlink="http://www.w3.org/1999/xlink" xml:space="preserve" xmlns:serif="http://www.serif.com/" style="fill-rule:evenodd;clip-rule:evenodd;stroke-linejoin:round;stroke-miterlimit:2;"><path d="M17.709,22.664c0,0.992 -0.794,1.719 -1.785,1.719l-6.547,0c-0.993,0 -1.786,-0.727 -1.786,-1.719l0,-14.015c0,-0.992 0.793,-1.719 1.786,-1.719l6.547,0c0.991,0 1.785,0.728 1.785,1.719l0,2.444l7.327,0l0,-4.163c0,-3.828 -2.97,-6.93 -6.865,-6.93l-11.306,0c-3.829,0 -6.865,3.102 -6.865,6.93l0,17.453c0,3.828 3.036,6.93 6.865,6.93l11.306,0c3.895,0 6.865,-3.102 6.865,-6.93l0,-4.559l-7.327,0l0,2.84Z" style="fill:#fff;fill-rule:nonzero;"/><path d="M49.097,23.061c0,0.992 -0.793,1.719 -1.786,1.719l-6.613,0c-0.992,0 -1.786,-0.727 -1.786,-1.719l0,-1.586l-7.26,0l0,2.906c0,3.829 3.036,6.932 6.865,6.932l11.042,0c3.894,0 6.997,-3.103 6.997,-6.932l0,-3.632c0,-3.042 -1.584,-5.29 -4.951,-6.414c-3.235,-1.058 -8.526,-2.578 -11.039,-3.372c-0.794,-0.264 -1.389,-0.925 -1.389,-1.851l0,-0.859c0,-0.992 0.926,-1.72 1.918,-1.72l5.952,0c0.992,0 1.785,0.728 1.785,1.72l0,1.519l7.262,0l0,-2.84c0,-3.829 -3.103,-6.932 -6.997,-6.932l-10.514,0c-3.829,0 -6.865,3.103 -6.865,6.932l0,3.501c0,3.041 2.112,5.421 4.95,6.347c3.369,1.124 7.536,2.38 11.04,3.372c1.587,0.463 1.389,1.917 1.389,1.917l0,0.992Z" style="fill:#fff;fill-rule:nonzero;"/><path d="M80.617,23.061c0,0.992 -0.794,1.719 -1.785,1.719l-6.614,0c-0.992,0 -1.785,-0.727 -1.785,-1.719l-0.001,-1.586l-7.26,0l0,2.906c0,3.829 3.037,6.932 6.865,6.932l11.043,0c3.894,0 6.996,-3.103 6.996,-6.932l0,-3.632c0,-3.042 -1.584,-5.29 -4.95,-6.414c-3.237,-1.058 -8.527,-2.578 -11.04,-3.372c-0.794,-0.264 -1.389,-0.925 -1.389,-1.851l0,-0.859c0,-0.992 0.926,-1.72 1.918,-1.72l5.952,0c0.992,0 1.786,0.728 1.786,1.72l0,1.519l7.261,0l0,-2.84c0,-3.829 -3.102,-6.932 -6.997,-6.932l-10.514,0c-3.828,0 -6.865,3.103 -6.865,6.932l0,3.501c0,3.041 2.113,5.421 4.951,6.347c3.368,1.124 7.534,2.38 11.04,3.372c1.586,0.463 1.388,1.917 1.388,1.917l0,0.992Z" style="fill:#fff;fill-rule:nonzero;"/></svg>