<?xml version="1.0" encoding="UTF-8" standalone="no"?>
<!DOCTYPE svg PUBLIC "-//W3C//DTD SVG 1.1//EN" "http://www.w3.org/Graphics/SVG/1.1/DTD/svg11.dtd">
<svg width="100%" height="100%" viewBox="0 0 417 417" version="1.1" xmlns="http://www.w3.org/2000/svg" xmlns:xlink="http://www.w3.org/1999/xlink" xml:space="preserve" xmlns:serif="http://www.serif.com/" style="fill-rule:evenodd;clip-rule:evenodd;stroke-linejoin:round;stroke-miterlimit:2;">
    <g transform="matrix(4.16667,0,0,4.16667,0,0)">
        <path d="M50,0C22.397,0 0,22.397 0,50C0,77.603 22.397,100 50,100C77.548,100 100,77.603 100,50C100,22.397 77.548,0 50,0ZM83.026,23.048C88.991,30.315 92.57,39.588 92.679,49.621C91.269,49.35 77.169,46.476 62.961,48.265C62.635,47.56 62.364,46.801 62.039,46.042C61.171,43.981 60.195,41.866 59.219,39.859C74.945,33.46 82.104,24.241 83.026,23.048ZM50,7.376C60.846,7.376 70.77,11.443 78.308,18.113C77.548,19.198 71.095,27.82 55.911,33.515C48.915,20.662 41.16,10.141 39.967,8.515C43.167,7.755 46.529,7.376 50,7.376ZM31.833,11.389C32.971,12.907 40.564,23.482 47.668,36.063C27.711,41.378 10.086,41.269 8.188,41.269C10.954,28.037 19.902,17.029 31.833,11.389ZM7.266,50.055L7.266,48.753C9.11,48.807 29.826,49.079 51.138,42.679C52.386,45.066 53.524,47.506 54.609,49.946C54.067,50.109 53.47,50.272 52.928,50.434C30.911,57.538 19.197,76.953 18.221,78.58C11.442,71.042 7.266,61.009 7.266,50.055ZM50,92.734C40.13,92.734 31.019,89.371 23.806,83.732C24.566,82.159 33.243,65.456 57.321,57.05C57.429,56.996 57.483,56.996 57.592,56.942C63.611,72.506 66.052,85.575 66.702,89.317C61.551,91.541 55.911,92.734 50,92.734ZM73.807,85.413C73.373,82.81 71.095,70.337 65.509,54.99C78.904,52.875 90.618,56.345 92.082,56.833C90.238,68.71 83.405,78.959 73.807,85.413Z" style="fill:rgb(90,255,233);fill-rule:nonzero;"/>
    </g>
</svg>
