<?xml version="1.0" encoding="UTF-8" standalone="no"?><!DOCTYPE svg PUBLIC "-//W3C//DTD SVG 1.1//EN" "http://www.w3.org/Graphics/SVG/1.1/DTD/svg11.dtd"><svg width="100%" height="100%" viewBox="0 0 103 83" version="1.1" xmlns="http://www.w3.org/2000/svg" xmlns:xlink="http://www.w3.org/1999/xlink" xml:space="preserve" xmlns:serif="http://www.serif.com/" style="fill-rule:evenodd;clip-rule:evenodd;stroke-linejoin:round;stroke-miterlimit:2;"><path d="M20.727,29.105c-4.488,0 -7.831,2.204 -7.831,7.509c0,3.997 2.203,6.771 7.59,6.771c4.565,0 7.666,-2.69 7.666,-6.936c0,-4.812 -2.775,-7.344 -7.425,-7.344l0,0Zm-8.977,37.455c-1.062,1.304 -2.121,2.689 -2.121,4.324c0,3.261 4.159,4.242 9.872,4.242c4.732,0 11.178,-0.331 11.178,-4.731c0,-2.615 -3.101,-2.777 -7.02,-3.023l-11.91,-0.812l0.001,0Zm24.151,-37.208c1.466,1.877 3.018,4.488 3.018,8.242c0,9.056 -7.098,14.359 -17.376,14.359c-2.614,0 -4.98,-0.325 -6.448,-0.733l-2.693,4.324l7.995,0.488c14.117,0.9 22.436,1.308 22.436,12.156c0,9.386 -8.239,14.686 -22.436,14.686c-14.768,0 -20.397,-3.754 -20.397,-10.198c0,-3.674 1.632,-5.627 4.488,-8.324c-2.694,-1.138 -3.59,-3.177 -3.59,-5.381c0,-1.796 0.896,-3.428 2.367,-4.979c1.468,-1.549 3.1,-3.101 5.058,-4.896c-3.997,-1.957 -7.017,-6.2 -7.017,-12.239c0,-9.382 6.202,-15.825 18.683,-15.825c3.509,0 5.631,0.323 7.508,0.816l15.911,0l0,6.933l-7.507,0.572" style="fill:#fff;fill-rule:nonzero;"/><path d="M57.77,14.525c-4.652,0 -7.344,-2.695 -7.344,-7.347c0,-4.647 2.692,-7.178 7.344,-7.178c4.732,0 7.425,2.531 7.425,7.178c0,4.652 -2.693,7.347 -7.425,7.347Zm-10.527,49.032l0,-6.442l4.162,-0.57c1.143,-0.165 1.305,-0.408 1.305,-1.635l0,-23.987c0,-0.896 -0.243,-1.469 -1.062,-1.712l-4.405,-1.552l0.897,-6.606l16.891,0l0,33.858c0,1.308 0.078,1.469 1.306,1.635l4.161,0.569l0,6.443l-23.256,0" style="fill:#fff;fill-rule:nonzero;"/><path d="M102.762,60.395c-3.51,1.711 -8.649,3.262 -13.302,3.262c-9.708,0 -13.379,-3.913 -13.379,-13.136l0,-21.375c0,-0.489 0,-0.817 -0.655,-0.817l-5.711,0l0,-7.261c7.183,-0.818 10.036,-4.409 10.934,-13.302l7.752,0l0,11.59c0,0.569 0,0.815 0.653,0.815l11.504,0l0,8.158l-12.157,0l0,19.499c0,4.815 1.144,6.69 5.547,6.69c2.288,0 4.651,-0.569 6.61,-1.304l2.205,7.182" style="fill:#fff;fill-rule:nonzero;"/></svg>