<?xml version="1.0" encoding="UTF-8" standalone="no"?><!DOCTYPE svg PUBLIC "-//W3C//DTD SVG 1.1//EN" "http://www.w3.org/Graphics/SVG/1.1/DTD/svg11.dtd"><svg width="100%" height="100%" viewBox="0 0 1126 305" version="1.1" xmlns="http://www.w3.org/2000/svg" xmlns:xlink="http://www.w3.org/1999/xlink" xml:space="preserve" xmlns:serif="http://www.serif.com/" style="fill-rule:evenodd;clip-rule:evenodd;stroke-linejoin:round;stroke-miterlimit:2;"><path d="M216.791,130.281l-94.585,0c-2.44,0 -4.418,1.982 -4.418,4.422l0,46.244c0,2.441 1.978,4.428 4.418,4.428l36.897,0l0,57.453c0,0 -8.284,2.825 -31.191,2.825c-27.021,0 -64.771,-9.875 -64.771,-92.884c0,-83.031 39.309,-93.953 76.212,-93.953c31.947,0 45.706,5.622 54.466,8.334c2.753,0.844 5.297,-1.897 5.297,-4.341l10.55,-44.678c0,-1.147 -0.388,-2.518 -1.688,-3.453c-3.556,-2.537 -25.253,-14.678 -80.066,-14.678c-63.143,0 -127.912,26.863 -127.912,156.006c0,129.144 74.156,148.388 136.647,148.388c51.741,0 83.128,-22.11 83.128,-22.11c1.294,-0.715 1.434,-2.525 1.434,-3.35l0,-144.231c0,-2.44 -1.978,-4.422 -4.418,-4.422Z" style="fill:#fff;fill-rule:nonzero;"/><path d="M704.241,15.475c0,-2.462 -1.95,-4.447 -4.394,-4.447l-53.256,0c-2.432,0 -4.41,1.985 -4.41,4.447c0,0.009 0.016,102.919 0.016,102.919l-83.016,0l0,-102.919c0,-2.462 -1.956,-4.447 -4.393,-4.447l-53.254,0c-2.422,0 -4.4,1.985 -4.4,4.447l0,278.678c0,2.46 1.978,4.456 4.4,4.456l53.254,0c2.437,0 4.393,-1.996 4.393,-4.456l0,-119.203l83.016,0c0,0 -0.147,119.194 -0.147,119.203c0,2.46 1.975,4.456 4.413,4.456l53.381,0c2.44,0 4.39,-1.996 4.397,-4.456l0,-278.678Z" style="fill:#fff;fill-rule:nonzero;"/><path d="M317.288,52.041c0,-19.175 -15.372,-34.672 -34.341,-34.672c-18.95,0 -34.338,15.497 -34.338,34.672c0,19.159 15.388,34.7 34.338,34.7c18.969,0 34.341,-15.541 34.341,-34.7Z" style="fill:#fff;fill-rule:nonzero;"/><path d="M313.481,235.366l0,-128.638c0,-2.444 -1.972,-4.44 -4.406,-4.44l-53.091,0c-2.434,0 -4.612,2.512 -4.612,4.953l0,184.303c0,5.415 3.375,7.028 7.741,7.028l47.831,0c5.25,0 6.537,-2.578 6.537,-7.116l0,-56.09Z" style="fill:#fff;fill-rule:nonzero;"/><path d="M906.638,102.706l-52.847,0c-2.422,0 -4.397,2 -4.397,4.46l0,136.64c0,0 -13.428,9.825 -32.485,9.825c-19.053,0 -24.109,-8.647 -24.109,-27.303l0,-119.162c0,-2.46 -1.969,-4.46 -4.397,-4.46l-53.637,0c-2.419,0 -4.404,2 -4.404,4.46l0,128.181c0,55.425 30.888,68.984 73.379,68.984c34.862,0 62.968,-19.262 62.968,-19.262c0,0 1.338,10.153 1.944,11.353c0.603,1.2 2.181,2.416 3.888,2.416l34.122,-0.154c2.418,0 4.403,-2 4.403,-4.45l-0.019,-187.068c0,-2.46 -1.972,-4.46 -4.409,-4.46Z" style="fill:#fff;fill-rule:nonzero;"/><path d="M1030.24,253.463c-18.332,-0.557 -30.766,-8.879 -30.766,-8.879l0,-88.25c0,0 12.266,-7.518 27.316,-8.862c19.031,-1.706 37.368,4.044 37.368,49.444c0,47.872 -8.275,57.318 -33.918,56.547Zm20.843,-157.016c-30.015,0 -50.431,13.391 -50.431,13.391l0,-94.363c0,-2.462 -1.969,-4.447 -4.394,-4.447l-53.409,0c-2.428,0 -4.4,1.985 -4.4,4.447l0,278.678c0,2.46 1.972,4.456 4.406,4.456l37.056,0c1.669,0 2.932,-0.859 3.866,-2.362c0.922,-1.5 2.25,-12.853 2.25,-12.853c0,0 21.838,20.697 63.178,20.697c48.538,0 76.372,-24.619 76.372,-110.519c0,-85.9 -44.456,-97.125 -74.494,-97.125Z" style="fill:#fff;fill-rule:nonzero;"/><path d="M466.544,102.262l-39.95,0c0,0 -0.06,-52.762 -0.06,-52.775c0,-2 -1.031,-2.996 -3.34,-2.996l-54.438,0c-2.119,0 -3.253,0.931 -3.253,2.965l0,54.538c0,0 -27.281,6.587 -29.128,7.115c-1.834,0.535 -3.187,2.229 -3.187,4.25l0,34.272c0,2.466 1.968,4.453 4.403,4.453l27.912,0l0,82.45c0,61.241 42.956,67.257 71.941,67.257c13.247,0 29.09,-4.257 31.706,-5.219c1.581,-0.584 2.5,-2.222 2.5,-4l0.047,-37.7c0,-2.456 -2.078,-4.45 -4.419,-4.45c-2.331,0 -8.281,0.95 -14.412,0.95c-19.625,0 -26.272,-9.125 -26.272,-20.934c0,-11.804 -0.003,-78.354 -0.003,-78.354l39.953,0c2.431,0 4.406,-1.987 4.406,-4.453l0,-42.928c0,-2.459 -1.975,-4.441 -4.406,-4.441Z" style="fill:#fff;fill-rule:nonzero;"/></svg>