<?xml version="1.0" encoding="UTF-8" standalone="no"?><!DOCTYPE svg PUBLIC "-//W3C//DTD SVG 1.1//EN" "http://www.w3.org/Graphics/SVG/1.1/DTD/svg11.dtd"><svg width="100%" height="100%" viewBox="0 0 205 73" version="1.1" xmlns="http://www.w3.org/2000/svg" xmlns:xlink="http://www.w3.org/1999/xlink" xml:space="preserve" xmlns:serif="http://www.serif.com/" style="fill-rule:evenodd;clip-rule:evenodd;stroke-linejoin:round;stroke-miterlimit:2;"><g><path d="M17.145,2.191c0.39,-1.461 1.38,-2.191 2.971,-2.191l8.472,0c0.812,0 1.396,0.308 1.753,0.925c0.357,0.617 0.438,1.347 0.244,2.191l-6.087,24.006l19.088,0l6.378,-24.931c0.39,-1.461 1.38,-2.191 2.97,-2.191l8.473,0c0.812,0 1.396,0.308 1.753,0.925c0.357,0.617 0.438,1.347 0.243,2.191l-17.042,66.904c-0.39,1.461 -1.396,2.191 -3.019,2.191l-8.472,0c-0.812,0 -1.396,-0.3 -1.753,-0.901c-0.357,-0.6 -0.439,-1.323 -0.244,-2.167l7.694,-30.14l-19.137,0l-7.888,31.017c-0.389,1.461 -1.379,2.191 -2.97,2.191l-8.472,0c-0.812,0 -1.396,-0.3 -1.753,-0.901c-0.358,-0.6 -0.439,-1.323 -0.244,-2.167l17.042,-66.952Z" style="fill:#fff;fill-rule:nonzero;"/><path d="M110.392,11.881l-14.316,0l-14.802,58.139c-0.39,1.461 -1.396,2.191 -3.019,2.191l-8.473,0c-0.811,0 -1.396,-0.3 -1.753,-0.901c-0.357,-0.6 -0.438,-1.323 -0.243,-2.167l14.607,-57.262l-15.192,0c-1.006,0 -1.655,-0.276 -1.947,-0.828c-0.292,-0.552 -0.276,-1.477 0.048,-2.775l1.607,-6.282c0.195,-0.844 0.495,-1.387 0.901,-1.631c0.406,-0.243 1.096,-0.365 2.069,-0.365l42.899,0c2.012,0 2.775,1.071 2.288,3.214l-1.266,5.892c-0.13,0.746 -0.544,1.395 -1.242,1.947c-0.697,0.552 -1.42,0.828 -2.166,0.828Z" style="fill:#fff;fill-rule:nonzero;"/><path d="M120.52,2.191c0.389,-1.461 1.379,-2.191 2.97,-2.191l9.592,0c0.779,0 1.348,0.179 1.705,0.536c0.357,0.357 0.584,0.941 0.681,1.753c1.234,13.147 1.623,24.67 1.169,34.571l20.256,-34.961c0.422,-0.714 0.86,-1.209 1.315,-1.485c0.454,-0.276 1.022,-0.414 1.704,-0.414l9.544,0c0.811,0 1.396,0.308 1.753,0.925c0.357,0.617 0.438,1.347 0.243,2.191l-17.042,66.904c-0.39,1.461 -1.38,2.191 -2.971,2.191l-8.521,0c-0.811,0 -1.396,-0.3 -1.753,-0.901c-0.357,-0.6 -0.438,-1.323 -0.243,-2.167l7.742,-30.384c-2.824,4.61 -4.999,8.213 -6.525,10.81c-1.818,3.051 -3.944,4.577 -6.379,4.577l-6.573,-0.682c-2.305,-0.259 -3.376,-1.59 -3.214,-3.992c0.325,-4.87 0.39,-10.112 0.195,-15.728l-9.252,36.276c-0.389,1.461 -1.395,2.191 -3.018,2.191l-8.473,0c-0.812,0 -1.396,-0.3 -1.753,-0.901c-0.357,-0.6 -0.438,-1.323 -0.243,-2.167l17.091,-66.952Z" style="fill:#fff;fill-rule:nonzero;"/><path d="M200.035,72.211l-22.156,0l-7.742,0l-0.73,0c-0.812,0 -1.396,-0.3 -1.753,-0.901c-0.357,-0.6 -0.438,-1.323 -0.243,-2.167l17.091,-66.952c0.389,-1.461 1.379,-2.191 2.97,-2.191l8.472,0c0.812,0 1.396,0.308 1.753,0.925c0.357,0.617 0.439,1.347 0.244,2.191l-14.559,57.214l19.136,0c2.013,0 2.775,1.071 2.288,3.214l-1.363,5.892c-0.13,0.746 -0.544,1.395 -1.242,1.947c-0.698,0.552 -1.42,0.828 -2.166,0.828Z" style="fill:#fff;fill-rule:nonzero;"/></g></svg>