<?xml version="1.0" encoding="UTF-8" standalone="no"?><!DOCTYPE svg PUBLIC "-//W3C//DTD SVG 1.1//EN" "http://www.w3.org/Graphics/SVG/1.1/DTD/svg11.dtd"><svg width="100%" height="100%" viewBox="0 0 101 72" version="1.1" xmlns="http://www.w3.org/2000/svg" xmlns:xlink="http://www.w3.org/1999/xlink" xml:space="preserve" xmlns:serif="http://www.serif.com/" style="fill-rule:evenodd;clip-rule:evenodd;stroke-linejoin:round;stroke-miterlimit:2;"><path d="M0.001,58.378l11.696,-7.079c2.256,4.001 4.309,7.386 9.233,7.386c4.719,0 7.696,-1.846 7.696,-9.027l0,-48.836l14.363,0l0,49.039c0,14.876 -8.721,21.648 -21.444,21.648c-11.49,0 -18.159,-5.951 -21.545,-13.132m50.79,-1.538l11.695,-6.771c3.079,5.027 7.08,8.721 14.159,8.721c5.951,0 9.746,-2.976 9.746,-7.08c0,-4.924 -3.898,-6.669 -10.465,-9.541l-3.59,-1.54c-10.362,-4.41 -17.236,-9.951 -17.236,-21.647c0,-10.773 8.207,-18.981 21.032,-18.981c9.131,0 15.698,3.181 20.417,11.491l-11.184,7.183c-2.463,-4.412 -5.129,-6.156 -9.233,-6.156c-4.207,0 -6.875,2.668 -6.875,6.156c0,4.308 2.668,6.054 8.823,8.721l3.591,1.539c12.209,5.233 19.083,10.567 19.083,22.57c0,12.928 -10.157,20.007 -23.802,20.007c-13.337,0 -21.955,-6.361 -26.162,-14.672" style="fill:#f5f5f5;fill-rule:nonzero;"/></svg>