<?xml version="1.0" encoding="UTF-8" standalone="no"?><!DOCTYPE svg PUBLIC "-//W3C//DTD SVG 1.1//EN" "http://www.w3.org/Graphics/SVG/1.1/DTD/svg11.dtd"><svg width="100%" height="100%" viewBox="0 0 2500 704" version="1.1" xmlns="http://www.w3.org/2000/svg" xmlns:xlink="http://www.w3.org/1999/xlink" xml:space="preserve" xmlns:serif="http://www.serif.com/" style="fill-rule:evenodd;clip-rule:evenodd;stroke-linejoin:round;stroke-miterlimit:2;"><path d="M714.496,274.995l0.005,-0.031l-19.969,70.757l19.964,-70.726Zm102.682,153.606l-21.999,-0.126l21.999,0.126Zm-5.657,105.673l0.02,0l-131.81,0.48l131.79,-0.48Zm27.636,-105.546l-22.009,-0.127l22.009,0.127Zm-16.084,96.564l22.959,-87.563l-22.959,87.584l0,-0.021Zm485.3,-403.252l-42.766,201.07l42.766,-201.07Zm-109.946,0l-32.472,150.207l32.472,-150.222l0,0.015Z" style="fill:#6ba0ab;fill-rule:nonzero;"/><g><path d="M1301.05,112.992l-91.463,0c-5.071,0 -10.108,4.072 -11.194,9.033l-32.471,150.217l-32.471,150.222c-1.076,4.96 -6.107,9.017 -11.179,9.017l-64.735,0c-64.049,0 -56.638,-44.307 -43.519,-104.986l0.394,-1.834l1.439,-7.648c0.086,-0.495 0.187,-0.99 0.268,-1.44l2.925,-15.573l3.132,-16.696c0.955,-5.031 2.399,-12.391 3.344,-17.013l14.761,-72.121l14.77,-72.125c1.021,-4.971 -2.313,-9.058 -7.385,-9.058l-93.883,0c-5.076,0 -10.103,4.087 -11.138,9.048l-20.186,95.766l-20.181,95.757c-0.02,0.04 -0.025,0.106 -0.03,0.146l-1.879,8.901c-23.253,106.153 -17.085,207.37 109.274,210.537c2.066,0.066 3.668,0.081 3.668,0.081l198.347,0c5.072,0 10.098,-4.076 11.159,-9.047l42.777,-201.056l42.771,-201.075c1.05,-4.981 -2.243,-9.048 -7.315,-9.053Zm364.866,319.534c5.082,0 8.406,4.082 7.386,9.037l-8.886,43.418m-8.865,43.433l8.875,-43.438l-8.88,43.448l0.005,-0.01Zm-11.139,9.128l0.04,-0.01c-26.909,0.217 -107.794,0.829 -168.589,0.829c73.985,0.005 168.544,-0.819 168.549,-0.819Zm-223.11,-160.921c-0.081,-4.748 5.339,-12.942 10.416,-12.942l-11.442,-0.187c-5.132,51.758 1.026,13.129 1.026,13.129Z" style="fill:#fff;fill-rule:nonzero;"/><path d="M1484.2,538.356c-0.581,0 -1.182,0 -1.783,0.01c0.601,-0.01 1.202,-0.01 1.783,-0.01Zm181.718,-105.83c5.082,0 8.406,4.082 7.386,9.037l-8.886,43.418l-1.445,7.077m-135.466,46.181l-0.369,0l0.369,0Zm-22.459,0.076l-1.319,0l1.319,0Zm-6.85,0.02c-0.738,0 -1.445,0 -2.157,0.021c0.712,-0.021 1.419,-0.021 2.157,-0.021Zm-6.971,0.021l-1.89,0l1.89,0Zm12.512,-0.041l-5.541,0.01l5.541,-0.01Zm140.741,-0.778c-19.721,0.152 -68.433,0.526 -117.009,0.728c48.545,-0.197 97.272,-0.576 117.009,-0.728Zm11.073,-9.108l7.441,-36.366l-7.446,36.397l0.005,-0.031Zm-159.497,9.927l-4.829,0l4.829,0Zm-13.644,0.01l-6.527,0l6.527,0Zm6.905,-0.01l-5.147,0l5.147,0Zm-1337.87,-160.649l14.205,-62.977l-16.24,71.994l-15.589,73.333l13.664,-64.281c1.046,-4.98 2.839,-13.113 3.96,-18.069Zm170.04,-265.775l-100.44,0c-5.082,0 -10.148,4.056 -11.28,9.001l-9.522,42.039l-9.522,42.054c-1.121,4.945 2.112,9.002 7.198,9.002l101.223,0c5.072,0 10.118,-4.057 11.209,-9.017l9.204,-42.039l9.204,-42.008l0,-0.01c1.076,-4.966 -2.187,-9.022 -7.274,-9.022Zm-21.858,139.841l0,-0.01l-29.461,136.285l29.461,-136.275Zm-291.786,451.575c0,0 50.631,0.652 82.82,0.652c-24.45,0 -64.827,-0.455 -82.861,-0.662l0.051,0.01l-0.01,0Zm172.009,-451.595l-14.22,62.977l14.22,-62.977Z" style="fill:#fff;fill-rule:nonzero;"/><path d="M292.361,242.741l-101.238,0c-5.077,0 -10.148,4.056 -11.27,9.017l-14.22,62.982l-14.205,62.982c-1.121,4.951 -2.909,13.094 -3.96,18.054l-13.664,64.281l-13.655,64.301c-1.061,4.945 -3.243,12.957 -4.869,17.786c0,0 -18.908,56.274 -50.708,55.628c-1.323,-0.018 -2.647,-0.042 -3.97,-0.071c-15.402,-0.303 -27.511,-0.52 -27.511,-0.52l-0.02,0c-5.066,-0.086 -10.163,3.894 -11.351,8.804l-10.497,44.13l-10.487,44.105c-1.177,4.941 2.006,8.992 7.052,9.083c18.029,0.222 58.411,0.692 82.86,0.692c79.42,0 121.282,-44.024 148.121,-170.625l31.41,-145.338l29.461,-136.284c1.071,-4.946 -2.213,-9.007 -7.279,-9.007Zm1438.06,290.467c-5.077,0 -8.35,-4.071 -7.279,-9.042l76.152,-356.708m36.962,356.698l30.819,-152.258l-30.819,152.258Z" style="fill:#fff;fill-rule:nonzero;"/><path d="M1724.22,528.697c-0.621,-2.485 -0.258,-8.582 0.818,-13.558l36.144,-169.317l-38.073,178.344c-1.071,4.971 2.212,9.052 7.269,9.052l9.249,0c-5.051,0 -14.796,-2.036 -15.407,-4.521Zm106.011,2.485c-2.763,1.117 -9.183,2.026 -14.27,2.026l9.249,0c5.077,0 10.063,-4.071 11.053,-9.052l1.828,-9.053c-0.99,4.976 -5.086,14.948 -7.86,16.079Zm21.439,-83.153l13.578,-67.195c-0.005,0.04 -0.01,0.106 -0.025,0.131l-13.553,67.064Zm300.49,-256.677l4.197,17.331c1.157,4.961 -2.051,8.987 -7.117,9.002m-311.138,297.424l13.578,-67.075l-13.578,67.075Zm309.885,-341.508l4.152,17.756l-4.152,-17.756Zm-282.729,207.238c1.011,-4.971 2.678,-13.028 3.739,-17.968l14.518,-68.014l-16.453,77.051l-1.804,8.931Zm-64.745,-219.226c-1.015,4.799 -2.303,10.861 -3.187,14.877l-36.114,169.332l38.074,-178.359l1.227,-5.85Z" style="fill:#fff;fill-rule:nonzero;"/><path d="M2156.33,208.683l-4.193,-17.331l-4.152,-17.757l-2.101,-8.986c-8.224,-31.946 -32.34,-50.384 -84.75,-50.384l-81.597,-0.091l-75.141,-0.086l-84.583,0c-5.077,0 -10.103,4.057 -11.149,9.032l-3.733,17.67l-4.4,20.863l-1.227,5.845l-38.074,178.359l-36.138,169.317c-1.076,4.965 -1.44,11.063 -0.823,13.553c0.611,2.495 10.355,4.526 15.462,4.526l76.283,0c5.082,0 11.508,-0.929 14.271,-2.036c2.768,-1.126 6.85,-11.093 7.875,-16.079l13.579,-67.074l13.573,-67.054c0.005,-0.03 0.01,-0.09 0.025,-0.111l1.809,-8.946l16.447,-77.036l14.529,-68.054c1.076,-4.945 6.077,-8.986 11.143,-9.001l240.038,-0.117c4.981,-0.03 8.189,-4.061 7.027,-9.022Z" style="fill:#fff;fill-rule:nonzero;"/><path d="M2465.33,51.96c-5.081,0.035 -13.386,0.066 -18.468,0.066l-76.834,0c-5.076,0 -11.583,3.435 -14.427,7.627l-169.882,248.884c-2.875,4.203 -6.168,3.576 -7.269,-1.369l-12.503,-54.834c-1.152,-4.956 -6.213,-9.002 -11.285,-9.002l-109.214,0c-5.087,0 -8.103,3.985 -6.708,8.87l48.939,171.439c1.374,4.884 1.495,12.932 0.237,17.821l-21.347,82.982c-1.273,4.925 1.858,8.946 6.935,8.946l107.941,0c5.077,0 10.265,-4.026 11.528,-8.946l21.337,-82.982c1.258,-4.92 4.789,-12.27 7.871,-16.321l275.808,-366.033c3.056,-4.057 1.399,-7.36 -3.673,-7.325l-28.986,0.177Zm-867.669,214.715l-0.01,-0.106c-0.636,5.511 -5.743,9.557 -10.815,9.557l-138.442,0c-4.789,0 -7.249,-3.258 -6.522,-7.269c0.041,-0.116 0.066,-0.217 0.111,-0.318c0,0 -0.045,0.01 -0.106,0.045c0.046,-0.161 0.046,-0.308 0.096,-0.464c0,0 0.283,-0.975 0.627,-2.354c13.225,-35.159 40.164,-58.234 90.806,-58.234c57.001,-0.011 68.13,27.833 64.255,59.143Zm-40.624,-159.825c-177.738,0 -219.847,107.88 -243.473,216.766c-23.641,110.986 -21.595,214.75 162.32,214.75l6.527,0c0.581,-0.01 1.177,-0.01 1.763,-0.01l11.886,0c0.732,-0.021 1.409,-0.021 2.152,-0.021l5.562,-0.01l1.303,0c7.264,-0.01 14.665,-0.05 22.06,-0.075l0.369,0c48.56,-0.192 97.287,-0.551 117.008,-0.718c5.041,-0.096 9.997,-4.142 11.038,-9.077l7.446,-36.397l1.449,-7.072l8.881,-43.412c1.025,-4.966 -2.299,-9.048 -7.38,-9.048l-165.332,0c-65.77,0 -85.299,-17.473 -78.106,-68.847l264.311,0l-0.026,0.03c0.066,0 0.122,-0.03 0.182,-0.03c4.198,-0.096 8.083,-2.97 9.623,-6.84c0.293,-0.737 0.526,-1.515 0.642,-2.313l-0.03,0.03c39.209,-148.009 27.945,-247.701 -140.175,-247.706Zm-840.038,159.259l-2.5,8.855l-0.005,0.031l-19.959,70.726l-19.948,70.716c-1.379,4.885 -6.658,8.891 -11.75,8.891l-105.637,0c-80.128,0 -99.636,-62.669 -80.128,-155.112c19.504,-94.544 57.76,-153.324 136.619,-159.269c107.774,-8.133 129.334,67.67 103.308,155.162Zm72.449,153.773c0,0 49.803,-120.923 61.114,-190.78c15.488,-93.499 -31.33,-229.102 -212.154,-229.102c-179.804,0 -257.875,129.465 -287.669,270.206c-29.789,141.761 9.239,266.073 188.013,265.068l141.028,-0.525l131.814,-0.485c5.077,-0.041 10.265,-4.072 11.563,-8.972l22.959,-87.583c1.278,-4.915 -1.828,-8.956 -6.9,-8.976l-22.004,-0.117l-22,-0.116c-4.314,-0.045 -6.789,-2.834 -6.264,-6.531c0.09,-0.707 0.27,-1.4 0.536,-2.061l-0.036,0l0,-0.026Z" style="fill:#fff;fill-rule:nonzero;"/><path d="M1679.49,338.947c0,3.344 -2.713,6.067 -6.062,6.067c-3.344,0 -6.057,-2.723 -6.057,-6.067c0,-3.344 2.713,-6.047 6.057,-6.047c3.349,-0.005 6.062,2.698 6.062,6.047Z" style="fill:#fff;fill-rule:nonzero;"/></g></svg>