<?xml version="1.0" encoding="UTF-8" standalone="no"?><!DOCTYPE svg PUBLIC "-//W3C//DTD SVG 1.1//EN" "http://www.w3.org/Graphics/SVG/1.1/DTD/svg11.dtd"><svg width="100%" height="100%" viewBox="0 0 228 68" version="1.1" xmlns="http://www.w3.org/2000/svg" xmlns:xlink="http://www.w3.org/1999/xlink" xml:space="preserve" xmlns:serif="http://www.serif.com/" style="fill-rule:evenodd;clip-rule:evenodd;stroke-linejoin:round;stroke-miterlimit:2;"><path d="M27.777,16.564c0,0.224 -0.225,0.224 -0.225,0.224l-0.224,0c-0.225,0 -0.225,-0.224 -0.449,-0.449c0,0 -0.224,-0.224 -0.224,-0.449c0,-0.224 0,-0.224 0.224,-0.224l0.449,0.224c0.224,0.225 0.449,0.449 0.449,0.674m-4.04,-2.245c0,-1.122 -0.449,-1.795 -1.122,-1.795c0,0 0,0.224 -0.225,0.224l0,0.449l0.673,0c0,0.449 0.225,0.673 0.225,1.122l0.449,0m7.855,-1.122c0.449,0 0.674,0.449 0.898,1.122l0.449,0c-0.225,-0.224 -0.225,-0.449 -0.225,-0.673c0,-0.224 0,-0.449 -0.224,-0.673c-0.224,-0.225 -0.449,-0.449 -0.673,-0.449c0,0 -0.225,0.224 -0.449,0.224c0,0.225 0.224,0.225 0.224,0.449m-6.733,3.591c-0.224,0 -0.224,0 -0.224,-0.224c0,-0.225 0,-0.449 0.224,-0.674c0.449,0 0.673,-0.224 0.673,-0.224c0.225,0 0.225,0.224 0.225,0.224c0,0.225 -0.225,0.449 -0.674,0.898l-0.224,0m-2.469,-0.224c-0.898,-0.449 -1.122,-1.123 -1.122,-2.245c0,-0.673 0,-1.122 0.449,-1.571c0.224,-0.449 0.673,-0.673 1.122,-0.673c0.449,0 0.673,0.224 1.122,0.673c0.225,0.674 0.449,1.347 0.449,2.02l0,0.449l0.225,0l0,-0.224c0.224,0 0.224,-0.449 0.224,-1.347c0,-0.673 0,-1.347 -0.449,-2.02c-0.449,-0.673 -0.898,-1.122 -1.795,-1.122c-0.674,0 -1.347,0.449 -1.571,1.122c-0.449,0.898 -0.539,1.571 -0.539,2.693c0,0.898 0.314,1.796 1.212,2.694c0.224,-0.225 0.449,-0.225 0.673,-0.449m28.055,31.646c0.225,0 0.225,-0.09 0.225,-0.292c0,-0.494 -0.225,-1.077 -0.898,-1.728c-0.673,-0.674 -1.796,-1.1 -3.142,-1.28c-0.225,-0.022 -0.449,-0.022 -0.449,-0.022c-0.225,-0.045 -0.225,-0.045 -0.449,-0.045c-0.225,-0.022 -0.673,-0.067 -0.898,-0.112c0.673,-2.087 0.898,-3.928 0.898,-5.544c0,-2.244 -0.449,-3.815 -1.347,-5.162c-0.897,-1.347 -1.795,-2.02 -2.917,-2.244c-0.225,0.224 -0.225,0.224 -0.225,0.449c1.122,0.448 2.245,1.346 2.918,2.693c0.673,1.571 0.898,2.918 0.898,4.489c0,1.257 -0.225,3.119 -1.123,5.498c-0.897,0.36 -1.795,1.19 -2.468,2.492c0,0.202 0,0.314 0.224,0.314c0,0 0.224,-0.202 0.449,-0.584c0.449,-0.381 0.673,-0.763 1.122,-1.144c0.673,-0.382 1.122,-0.584 1.796,-0.584c1.122,0 2.244,0.157 2.917,0.472c0.898,0.291 1.347,0.606 1.571,0.965c0.225,0.336 0.449,0.651 0.674,0.942c0,0.292 0.224,0.427 0.224,0.427m-20.648,-32.544c-0.225,-0.225 -0.225,-0.673 -0.225,-1.122c0,-0.898 0,-1.347 0.449,-2.02c0.449,-0.449 0.898,-0.674 1.347,-0.674c0.673,0 1.122,0.449 1.571,0.898c0.224,0.674 0.449,1.122 0.449,1.796c0,1.122 -0.449,1.795 -1.347,2.02c0,0 0.225,0.224 0.449,0.224c0.449,0 0.673,0.225 1.122,0.449c0.225,-1.347 0.449,-2.244 0.449,-3.367c0,-1.346 -0.224,-2.244 -0.673,-2.917c-0.674,-0.674 -1.347,-0.898 -2.245,-0.898c-0.673,0 -1.346,0.224 -2.02,0.673c-0.449,0.674 -0.673,1.122 -0.673,1.796c0,1.122 0.224,2.02 0.673,2.917c0.225,0 0.449,0.225 0.674,0.225m2.693,3.591c-2.918,2.02 -5.162,2.918 -6.958,2.918c-1.571,0 -3.142,-0.674 -4.488,-1.796c0.224,0.449 0.448,0.898 0.673,1.122l1.346,1.347c0.898,0.898 2.02,1.347 3.143,1.347c1.571,0 3.366,-0.898 5.611,-2.469l2.02,-1.347c0.448,-0.449 0.897,-0.898 0.897,-1.571c0,-0.224 0,-0.449 -0.224,-0.449c-0.225,-0.449 -1.347,-1.122 -3.591,-1.795c-2.02,-0.898 -3.591,-1.347 -4.489,-1.347c-0.673,0 -1.795,0.449 -3.367,1.347c-1.346,0.897 -2.244,1.795 -2.244,2.693c0,0 0.225,0.224 0.449,0.673c1.347,1.122 2.693,1.796 4.04,1.796c1.795,0 4.04,-0.898 6.958,-3.142l0,0.449c0.224,0 0.224,0.224 0.224,0.224m5.162,45.337c0.898,1.688 2.469,2.536 4.264,2.536c0.449,0 0.898,-0.067 1.347,-0.202c0.449,-0.09 0.898,-0.247 1.122,-0.426c0.225,-0.157 0.449,-0.315 0.674,-0.494c0.448,-0.157 0.448,-0.269 0.673,-0.382l3.815,-3.299c0.898,-0.716 1.796,-1.342 2.918,-1.885c0.898,-0.539 1.796,-0.898 2.245,-1.1c0.673,-0.18 1.122,-0.449 1.571,-0.808c0.224,-0.337 0.448,-0.763 0.448,-1.302c0,-0.651 -0.448,-1.144 -0.897,-1.504c-0.449,-0.359 -0.898,-0.605 -1.347,-0.763c-0.449,-0.157 -0.898,-0.516 -1.571,-1.122c-0.449,-0.583 -0.898,-1.391 -1.122,-2.446l-0.225,-1.302c-0.224,-0.606 -0.224,-1.055 -0.449,-1.302c0,-0.067 0,-0.089 -0.224,-0.089c-0.224,0 -0.673,0.202 -0.898,0.583c-0.449,0.382 -0.897,0.808 -1.346,1.257c-0.225,0.449 -0.898,0.853 -1.347,1.234c-0.673,0.382 -1.347,0.584 -1.796,0.584c-1.795,0 -2.693,-0.494 -3.366,-1.459c-0.449,-0.718 -0.673,-1.549 -0.898,-2.491c-0.449,-0.382 -0.673,-0.584 -1.122,-0.584c-1.122,0 -1.571,1.167 -1.571,3.524l0,6.98c0,0.202 -0.225,0.651 -0.225,1.347c-0.224,0.695 -0.224,1.485 -0.224,2.379l-0.449,2.491l0,0.038m-32.544,-1.187c2.088,0.305 4.489,0.958 7.205,1.955c2.716,0.987 4.376,1.503 4.982,1.503c1.571,0 2.873,-0.695 3.951,-2.04c0.224,-0.435 0.224,-0.947 0.224,-1.535c0,-2.121 -1.279,-4.803 -3.838,-8.057l-1.526,-2.043c-0.314,-0.426 -0.696,-1.077 -1.19,-1.952c-0.471,-0.876 -0.897,-1.549 -1.234,-2.02c-0.292,-0.516 -0.763,-1.033 -1.369,-1.549c-0.584,-0.516 -1.257,-0.853 -1.998,-1.032c-0.942,0.179 -1.593,0.493 -1.907,0.92c-0.315,0.426 -0.494,0.898 -0.539,1.391c-0.067,0.472 -0.202,0.786 -0.427,0.943c-0.224,0.135 -0.606,0.247 -1.122,0.359c-0.112,0 -0.314,0 -0.606,0.023l-0.606,0c-1.189,0 -1.997,0.134 -2.424,0.359c-0.561,0.651 -0.853,1.391 -0.853,2.177c0,0.359 0.09,0.965 0.27,1.818c0.179,0.83 0.269,1.504 0.269,1.975c0,0.92 -0.269,1.84 -0.83,2.76c-0.561,0.966 -0.853,1.684 -0.853,2.195c0.224,0.871 1.706,1.484 4.421,1.843m7.474,-20.401c0,-1.549 0.404,-3.255 1.235,-5.275c0.808,-2.02 1.616,-3.366 2.401,-4.264c-0.045,-0.225 -0.157,-0.225 -0.337,-0.225l-0.224,-0.224c-0.651,0.673 -1.436,2.244 -2.379,4.489c-0.943,2.02 -1.437,3.883 -1.437,5.252c0,1.01 0.247,1.885 0.696,2.648c0.494,0.741 1.684,1.818 3.569,3.187l2.379,1.549c2.536,2.199 3.883,3.725 3.883,4.623c0,0.472 -0.225,0.943 -0.898,1.459c-0.449,0.539 -1.055,0.808 -1.571,0.808c-0.045,0 -0.067,0.045 -0.067,0.157c0,0.023 0.224,0.471 0.695,1.347c0.943,1.279 2.963,1.908 5.656,1.908c4.938,0 8.753,-2.02 11.671,-6.06c0,-1.123 0,-1.818 -0.224,-2.11l0,-0.831c0,-1.458 0.224,-2.558 0.673,-3.276c0.449,-0.719 0.898,-1.055 1.571,-1.055c0.449,0 0.898,0.157 1.347,0.494c0.224,-1.729 0.224,-3.232 0.224,-4.579c0,-2.042 0,-3.726 -0.449,-5.297c-0.224,-1.346 -0.673,-2.469 -1.122,-3.366c-0.449,-0.674 -0.898,-1.347 -1.347,-2.02c-0.448,-0.674 -0.673,-1.347 -1.122,-2.02c-0.224,-0.898 -0.449,-1.571 -0.449,-2.694c-0.673,-1.122 -1.122,-2.244 -1.795,-3.366c-0.449,-1.122 -0.898,-2.245 -1.347,-3.142l-2.02,1.571c-2.244,1.571 -4.04,2.244 -5.611,2.244c-1.346,0 -2.469,-0.224 -3.142,-1.122l-1.347,-1.122c0,0.673 -0.224,1.571 -0.673,2.469l-1.414,2.693c-0.628,1.571 -0.965,2.469 -1.032,3.142c-0.09,0.449 -0.157,0.898 -0.202,0.898l-1.684,3.366c-1.818,3.367 -2.738,6.487 -2.738,9.068c0,0.516 0.045,1.055 0.135,1.593c-1.01,-0.696 -1.504,-1.661 -1.504,-2.917m16.07,21.232c-2.918,0 -5.162,0.395 -6.733,1.178l0,-0.067c-1.122,1.346 -2.379,2.042 -4.13,2.042c-1.1,0 -2.828,-0.427 -5.162,-1.279c-2.357,-0.808 -4.444,-1.428 -6.262,-1.836c-0.179,-0.052 -0.583,-0.128 -1.234,-0.231c-0.629,-0.101 -1.212,-0.205 -1.728,-0.308c-0.472,-0.101 -1.01,-0.254 -1.594,-0.46c-0.561,-0.177 -1.01,-0.409 -1.347,-0.689c-0.309,-0.283 -0.462,-0.602 -0.462,-0.958c0,-0.36 0.076,-0.743 0.229,-1.152c0.144,-0.247 0.301,-0.494 0.458,-0.718c0.157,-0.247 0.292,-0.471 0.381,-0.696c0.135,-0.202 0.225,-0.404 0.315,-0.628c0.089,-0.202 0.179,-0.404 0.224,-0.651c0.045,-0.225 0.09,-0.449 0.09,-0.673c0,-0.225 -0.09,-0.898 -0.27,-2.088c-0.179,-1.167 -0.269,-1.907 -0.269,-2.222c0,-0.987 0.225,-1.773 0.718,-2.334c0.494,-0.561 0.965,-0.853 1.459,-0.853l2.581,0c0.202,0 0.516,-0.112 0.988,-0.381c0.157,-0.359 0.292,-0.651 0.381,-0.92c0.113,-0.27 0.157,-0.472 0.202,-0.562c0.045,-0.134 0.09,-0.269 0.135,-0.381c0.09,-0.157 0.202,-0.337 0.359,-0.516c-0.179,-0.225 -0.269,-0.517 -0.269,-0.876c0,-0.247 0,-0.471 0.045,-0.606c0,-0.808 0.381,-1.952 1.189,-3.456l0.786,-1.414c0.651,-1.212 1.144,-2.11 1.503,-3.007c0.382,-0.898 0.786,-2.245 1.235,-4.04c0.359,-1.571 1.212,-3.143 2.559,-4.714l1.683,-2.02c1.167,-1.346 1.93,-2.468 2.356,-3.366c0.427,-0.898 0.651,-2.02 0.651,-2.918c0,-0.449 -0.112,-1.795 -0.359,-4.04c-0.224,-2.244 -0.336,-4.489 -0.336,-6.509c0,-1.571 0.134,-2.693 0.426,-3.815c0.292,-1.122 0.808,-2.245 1.571,-3.142c0.673,-0.898 1.571,-1.796 2.918,-2.245c1.346,-0.449 2.918,-0.673 4.713,-0.673c0.673,0 1.347,0 2.02,0.224c0.673,0 1.571,0.225 2.693,0.674c0.898,0.449 1.796,0.898 2.469,1.571c0.898,0.673 1.571,1.795 2.245,2.918c0.448,1.346 0.897,2.693 1.122,4.488c0.224,1.123 0.224,2.245 0.449,3.816c0,1.346 0.224,2.244 0.224,2.918c0.224,0.673 0.224,1.571 0.449,2.693c0.224,0.898 0.449,1.795 0.898,2.469c0.449,0.897 0.897,1.795 1.571,2.693c0.673,1.122 1.571,2.244 2.469,3.591c2.02,2.244 3.591,4.713 4.488,7.182c1.123,2.245 1.796,5.162 1.796,8.282c0,1.549 -0.225,3.052 -0.673,4.511c0.448,0 0.673,0.18 0.897,0.494c0.225,0.314 0.449,0.987 0.674,2.042l0.224,1.661c0.225,0.494 0.449,0.965 1.122,1.369c0.449,0.404 0.898,0.741 1.571,1.01c0.449,0.225 1.123,0.539 1.571,0.943c0.449,0.449 0.674,0.92 0.674,1.414c0,0.763 -0.225,1.324 -0.674,1.728c-0.448,0.449 -0.897,0.763 -1.571,0.965c-0.448,0.225 -1.346,0.674 -2.693,1.306c-1.122,0.665 -2.244,1.471 -3.366,2.424l-2.245,1.91c-0.898,0.876 -1.795,1.504 -2.469,1.886c-0.673,0.404 -1.571,0.606 -2.469,0.606l-1.571,-0.18c-1.795,-0.471 -2.917,-1.369 -3.591,-2.738c-3.591,-0.435 -6.508,-0.651 -8.304,-0.651" style="fill:#fff;fill-rule:nonzero;"/><g><path d="M67.045,23.796l-0.072,39.465c0,0.216 -0.072,0.288 -0.216,0.288l-4.968,0.215c0,1.078 -0.072,2.298 -0.072,3.376c2.592,0 5.471,-0.072 8.491,-0.072c9.716,0 18.5,0.072 21.884,0.072c0.936,-3.807 2.088,-8.561 2.808,-12.089c-1.08,-0.36 -2.448,-0.648 -3.744,-0.865l-2.592,7.562c-0.288,0.864 -0.648,1.369 -1.296,1.513c-1.152,0.216 -3.528,0.432 -11.52,0.432c-3.024,0 -3.096,-0.216 -3.096,-1.513l0.216,-38.096c0,-0.216 0,-0.288 0.144,-0.288l6.336,-0.144c0.072,-1.077 0.072,-2.298 0.072,-3.375l-17.559,0c-0.072,1.077 -0.144,2.226 -0.144,3.375l5.328,0.144Z" style="fill:#fff;fill-rule:nonzero;"/><path d="M105.776,21.645c-2.589,0 -4.027,1.798 -4.027,3.811c0,2.014 1.582,3.74 3.811,3.74c2.23,0 3.812,-1.582 3.812,-3.812c0.072,-1.582 -0.863,-3.739 -3.596,-3.739Zm-2.371,19.532l0,22.228c0,0.216 -0.144,0.36 -0.288,0.36l-4.824,0.215c-0.072,1.005 -0.072,2.082 -0.072,3.16c2.448,0 5.112,-0.072 7.556,-0.072l7.987,0c0.072,-1.006 0.072,-2.083 0.072,-3.16l-5.04,-0.143c0,-7.704 0.144,-19.44 0.144,-27.432c0,-0.144 0,-0.216 -0.144,-0.216c-0.575,0 -7.911,1.44 -10.935,1.8c0,0.946 -0.072,2.103 -0.072,3.043l5.616,0.217Z" style="fill:#fff;fill-rule:nonzero;"/><path d="M122.485,41.177l0.072,22.3c0,0.144 -0.144,0.288 -0.216,0.288l-4.32,0.215c-0.072,1.005 -0.072,2.154 -0.072,3.16c2.16,0 4.68,-0.072 6.98,-0.072l8.134,0c0.072,-1.006 0.072,-2.154 0.072,-3.16l-5.187,-0.143c0,-5.258 0.072,-13.614 0.216,-19.088c2.81,-2.232 6.844,-4.177 9.509,-4.177c1.729,0 3.53,0.216 4.899,2.737c0.937,1.584 0.937,4.321 0.937,7.275c0,3.961 0,9.075 -0.072,12.965c0,0.144 -0.072,0.288 -0.216,0.288l-4.179,0.215c-0.072,1.005 -0.072,2.154 -0.072,3.16c2.017,0 4.683,-0.072 6.911,-0.072l7.555,0c0.072,-1.006 0.072,-2.154 0.072,-3.16l-4.608,-0.143c0.072,-5.402 0.216,-12.245 0.216,-17.431c0,-1.657 -0.36,-3.529 -1.366,-5.33c-1.366,-2.301 -3.954,-4.887 -7.699,-4.887c-3.098,0 -4.683,0.287 -11.815,4.671l-0.36,-0.072c-0.216,-1.007 -0.575,-2.947 -0.791,-4.312c0,-0.144 0,-0.216 -0.144,-0.216c-0.503,0 -7.048,1.438 -9.856,1.941c-0.072,0.878 -0.144,1.963 -0.144,2.976l5.544,0.072Z" style="fill:#fff;fill-rule:nonzero;"/><path d="M192.172,63.693l-4.824,0.072c-0.36,0 -0.504,-0.288 -0.504,-1.009c0,-8.427 0.144,-17.574 0.144,-25.704c0,-0.144 -0.072,-0.215 -0.144,-0.215c-0.935,0 -7.408,0.143 -10.002,0.143c-0.072,1.078 -0.144,2.299 -0.144,3.376l4.683,0.144l0,19.591c-3.026,2.305 -5.98,3.674 -8.573,3.674c-2.018,0 -3.675,-0.649 -4.9,-2.593c-1.152,-1.873 -1.152,-3.89 -1.08,-6.915c0,-5.978 0.072,-11.74 0.144,-17.205c0,-0.144 0,-0.215 -0.144,-0.215c-0.863,0 -7.191,0.215 -9.783,0.287c0,1.005 -0.072,2.226 -0.072,3.232l4.392,0.144c0,5.186 -0.072,11.164 -0.072,17.43c0,4.898 4.457,9.858 9.281,9.858c2.81,0 4.395,-0.144 10.735,-3.88l0.359,0.072c0.791,1.796 1.582,3.089 2.3,3.808c3.236,0 7.268,-0.719 8.132,-1.078c0.072,-0.934 0.072,-2.083 0.072,-3.017Z" style="fill:#fff;fill-rule:nonzero;"/><path d="M193.405,63.98c-0.072,1.005 -0.072,2.082 -0.072,3.16c1.727,-0.072 3.813,-0.072 5.612,-0.072l7.051,0c0.072,-1.006 0.072,-2.154 0.072,-3.16l-4.029,-0.143c2.014,-2.593 4.967,-6.411 7.493,-9.364l0.361,0c2.31,2.881 4.833,6.122 6.706,9.003c0.144,0.145 0,0.361 -0.288,0.361l-3.747,0.143c-0.072,1.006 -0.072,2.154 -0.072,3.16l14.557,0c0,-1.006 0.072,-2.154 0.072,-3.16l-3.819,-0.143c-2.595,-3.242 -6.27,-8.067 -9.513,-12.245l0,-0.432c4.309,-4.898 7.618,-8.86 9.417,-10.876l3.238,-0.216c0.072,-1.005 0.144,-2.154 0.144,-3.159c-1.583,0.072 -3.526,0.072 -5.396,0.072l-6.907,0c-0.072,1.005 -0.072,2.154 -0.072,3.159l3.597,0.144c0.144,0 0.216,0.144 0.072,0.288c-1.367,2.089 -3.453,4.754 -6.122,8.211l-0.433,0c-2.379,-3.169 -4.753,-6.555 -6.121,-8.499l4.246,-0.144c0.072,-1.077 0.072,-2.226 0.072,-3.159l-14.463,0c-0.072,1.005 -0.072,2.082 -0.072,3.159l3.454,0.144c0.144,0 0.287,0.144 0.431,0.288c2.519,3.241 5.469,6.914 8.563,10.876l0,0.504c-3.744,4.178 -7.629,8.499 -10.291,11.524c-0.216,0.145 -0.432,0.361 -0.791,0.361l-2.95,0.215Z" style="fill:#fff;fill-rule:nonzero;"/></g></svg>