<?xml version="1.0" encoding="UTF-8" standalone="no"?><!DOCTYPE svg PUBLIC "-//W3C//DTD SVG 1.1//EN" "http://www.w3.org/Graphics/SVG/1.1/DTD/svg11.dtd"><svg width="100%" height="100%" viewBox="0 0 205 99" version="1.1" xmlns="http://www.w3.org/2000/svg" xmlns:xlink="http://www.w3.org/1999/xlink" xml:space="preserve" xmlns:serif="http://www.serif.com/" style="fill-rule:evenodd;clip-rule:evenodd;stroke-linejoin:round;stroke-miterlimit:2;"><path d="M0,98.716l15.486,-78.393l35.807,0c15.485,0.968 23.228,8.71 23.228,22.26c0,23.228 -18.388,36.777 -34.842,35.809l-17.419,0l-3.871,20.324l-18.389,0Zm26.131,-34.84l4.839,-29.035l12.582,0c6.774,0 11.613,2.903 11.613,8.709c-0.967,16.454 -8.71,19.358 -17.42,20.326l-11.613,0l-0.001,0Zm44.792,14.516l15.485,-78.392l18.389,0l-3.872,20.323l17.42,0c15.486,0.968 21.292,8.71 19.357,18.389l-6.775,39.68l-19.356,0l6.775,-35.809c0.967,-4.839 0.967,-7.742 -5.807,-7.742l-14.517,0l-8.71,43.551l-18.389,0Zm58.765,20.324l15.484,-78.393l35.809,0c15.485,0.968 23.228,8.71 23.228,22.26c0,23.228 -18.389,36.777 -34.841,35.809l-17.421,0l-3.872,20.324l-18.387,0Zm26.129,-34.84l4.84,-29.035l12.582,0c6.775,0 11.613,2.903 11.613,8.709c-0.967,16.454 -8.71,19.358 -17.42,20.326l-11.614,0l-0.001,0Z" style="fill:#fff;"/></svg>